# xmcd
#
# Track frame offsets: 
#        150
#        11358
#        22318
#        34520
#        41852
#        56146
#        65660
#        75943
#        88233
#        98110
#        106489
#        117710
#        129208
#        136844
#        147250
#        158196
#        169749
#        180589
#        195982
#        208447
#        219696
#        230853
#        241205
#        251779
#        262917
#        274391
#        284414
#        297173
#
# Disc length: 4155 seconds
#
# Revision: 0
# Processed by: cddbd v1.5.2PL0 Copyright (c) Steve Scherf et al.
# Submitted via: ExactAudioCopyFreeDBPlugin 1.0
#
DISCID=ad10391c
DTITLE=Tom Fletcher - Der Weihnachtssaurus und die Winterhexe [CD 1)
DYEAR=2019
DGENRE=Kinder-Hörbuch
TTITLE0=Der Weihnachtssaurus und die Winterhexe [CD 1)
TTITLE1=Der Weihnachtssaurus und die Winterhexe [CD 1)
TTITLE2=Der Weihnachtssaurus und die Winterhexe [CD 1)
TTITLE3=Der Weihnachtssaurus und die Winterhexe [CD 1)
TTITLE4=Der Weihnachtssaurus und die Winterhexe [CD 1)
TTITLE5=Der Weihnachtssaurus und die Winterhexe [CD 1)
TTITLE6=Der Weihnachtssaurus und die Winterhexe [CD 1)
TTITLE7=Der Weihnachtssaurus und die Winterhexe [CD 1)
TTITLE8=Der Weihnachtssaurus und die Winterhexe [CD 1)
TTITLE9=Der Weihnachtssaurus und die Winterhexe [CD 1)
TTITLE10=Der Weihnachtssaurus und die Winterhexe [CD 1)
TTITLE11=Der Weihnachtssaurus und die Winterhexe [CD 1)
TTITLE12=Der Weihnachtssaurus und die Winterhexe [CD 1)
TTITLE13=Der Weihnachtssaurus und die Winterhexe [CD 1)
TTITLE14=Der Weihnachtssaurus und die Winterhexe [CD 1)
TTITLE15=Der Weihnachtssaurus und die Winterhexe [CD 1)
TTITLE16=Der Weihnachtssaurus und die Winterhexe [CD 1)
TTITLE17=Der Weihnachtssaurus und die Winterhexe [CD 1)
TTITLE18=Der Weihnachtssaurus und die Winterhexe [CD 1)
TTITLE19=Der Weihnachtssaurus und die Winterhexe [CD 1)
TTITLE20=Der Weihnachtssaurus und die Winterhexe [CD 1)
TTITLE21=Der Weihnachtssaurus und die Winterhexe [CD 1)
TTITLE22=Der Weihnachtssaurus und die Winterhexe [CD 1)
TTITLE23=Der Weihnachtssaurus und die Winterhexe [CD 1)
TTITLE24=Der Weihnachtssaurus und die Winterhexe [CD 1)
TTITLE25=Der Weihnachtssaurus und die Winterhexe [CD 1)
TTITLE26=Der Weihnachtssaurus und die Winterhexe [CD 1)
TTITLE27=Der Weihnachtssaurus und die Winterhexe [CD 1)
EXTD=
EXTT0=
EXTT1=
EXTT2=
EXTT3=
EXTT4=
EXTT5=
EXTT6=
EXTT7=
EXTT8=
EXTT9=
EXTT10=
EXTT11=
EXTT12=
EXTT13=
EXTT14=
EXTT15=
EXTT16=
EXTT17=
EXTT18=
EXTT19=
EXTT20=
EXTT21=
EXTT22=
EXTT23=
EXTT24=
EXTT25=
EXTT26=
EXTT27=
PLAYORDER=
